<mxfile host="app.diagrams.net" modified="2024-05-08T01:05:45.359Z" agent="Mozilla/5.0 (Windows NT 10.0; Win64; x64) AppleWebKit/537.36 (KHTML, like Gecko) Chrome/124.0.0.0 Safari/537.36 Edg/124.0.0.0" etag="hliNKleaKU9ljqC3PbKc" version="24.2.5" type="github">
  <diagram name="第 1 页" id="6D3OXgUcwz9SzxZqRqj4">
    <mxGraphModel dx="1668" dy="583" grid="1" gridSize="10" guides="1" tooltips="1" connect="1" arrows="1" fold="1" page="1" pageScale="1" pageWidth="827" pageHeight="1169" math="0" shadow="0">
      <root>
        <mxCell id="0" />
        <mxCell id="1" parent="0" />
        <mxCell id="kv11LzDr1hm_sHExOrsk-1" value="" style="rounded=0;whiteSpace=wrap;html=1;strokeColor=none;fillColor=#FFFFFF;" vertex="1" parent="1">
          <mxGeometry x="-30" y="70" width="550" height="800" as="geometry" />
        </mxCell>
        <mxCell id="kv11LzDr1hm_sHExOrsk-4" value="" style="ellipse;html=1;shape=endState;fillColor=#000000;strokeColor=#000000;" vertex="1" parent="1">
          <mxGeometry x="122.5" y="830" width="30" height="30" as="geometry" />
        </mxCell>
        <mxCell id="kv11LzDr1hm_sHExOrsk-7" value="验证用户身份" style="rhombus;whiteSpace=wrap;html=1;" vertex="1" parent="1">
          <mxGeometry x="72.5" y="270" width="127.5" height="60" as="geometry" />
        </mxCell>
        <mxCell id="kv11LzDr1hm_sHExOrsk-8" value="" style="endArrow=open;html=1;rounded=0;endFill=0;exitX=1;exitY=0.5;exitDx=0;exitDy=0;entryX=0;entryY=0.5;entryDx=0;entryDy=0;" edge="1" parent="1" target="kv11LzDr1hm_sHExOrsk-27" source="kv11LzDr1hm_sHExOrsk-7">
          <mxGeometry width="50" height="50" relative="1" as="geometry">
            <mxPoint x="137" y="370" as="sourcePoint" />
            <mxPoint x="140" y="400" as="targetPoint" />
          </mxGeometry>
        </mxCell>
        <mxCell id="kv11LzDr1hm_sHExOrsk-9" value="患者" style="edgeLabel;html=1;align=center;verticalAlign=middle;resizable=0;points=[];" vertex="1" connectable="0" parent="kv11LzDr1hm_sHExOrsk-8">
          <mxGeometry x="0.003" y="1" relative="1" as="geometry">
            <mxPoint x="-3" as="offset" />
          </mxGeometry>
        </mxCell>
        <mxCell id="kv11LzDr1hm_sHExOrsk-12" value="" style="endArrow=open;html=1;rounded=0;endFill=0;exitX=0.5;exitY=1;exitDx=0;exitDy=0;entryX=0.5;entryY=0;entryDx=0;entryDy=0;" edge="1" parent="1" source="kv11LzDr1hm_sHExOrsk-7" target="kv11LzDr1hm_sHExOrsk-14">
          <mxGeometry width="50" height="50" relative="1" as="geometry">
            <mxPoint x="190" y="357" as="sourcePoint" />
            <mxPoint x="260" y="357" as="targetPoint" />
          </mxGeometry>
        </mxCell>
        <mxCell id="kv11LzDr1hm_sHExOrsk-13" value="医护" style="edgeLabel;html=1;align=center;verticalAlign=middle;resizable=0;points=[];" vertex="1" connectable="0" parent="kv11LzDr1hm_sHExOrsk-12">
          <mxGeometry x="0.003" y="1" relative="1" as="geometry">
            <mxPoint as="offset" />
          </mxGeometry>
        </mxCell>
        <mxCell id="kv11LzDr1hm_sHExOrsk-14" value="是否已关注患者" style="rhombus;whiteSpace=wrap;html=1;" vertex="1" parent="1">
          <mxGeometry x="73.75" y="390" width="127.5" height="60" as="geometry" />
        </mxCell>
        <mxCell id="kv11LzDr1hm_sHExOrsk-15" value="" style="endArrow=open;html=1;rounded=0;endFill=0;exitX=0.5;exitY=1;exitDx=0;exitDy=0;entryX=0.5;entryY=0;entryDx=0;entryDy=0;" edge="1" parent="1" source="kv11LzDr1hm_sHExOrsk-14" target="kv11LzDr1hm_sHExOrsk-29">
          <mxGeometry width="50" height="50" relative="1" as="geometry">
            <mxPoint x="210" y="310" as="sourcePoint" />
            <mxPoint x="140" y="500" as="targetPoint" />
          </mxGeometry>
        </mxCell>
        <mxCell id="kv11LzDr1hm_sHExOrsk-30" value="是" style="edgeLabel;html=1;align=center;verticalAlign=middle;resizable=0;points=[];" vertex="1" connectable="0" parent="kv11LzDr1hm_sHExOrsk-15">
          <mxGeometry x="-0.2933" y="2" relative="1" as="geometry">
            <mxPoint x="6" y="-4" as="offset" />
          </mxGeometry>
        </mxCell>
        <mxCell id="kv11LzDr1hm_sHExOrsk-19" value="返回风险预测界面" style="rounded=1;whiteSpace=wrap;html=1;" vertex="1" parent="1">
          <mxGeometry x="74.25" y="719" width="125" height="50" as="geometry" />
        </mxCell>
        <mxCell id="kv11LzDr1hm_sHExOrsk-23" value="" style="ellipse;html=1;shape=startState;fillColor=#000000;strokeColor=#000000;" vertex="1" parent="1">
          <mxGeometry x="120" y="70" width="30" height="30" as="geometry" />
        </mxCell>
        <mxCell id="kv11LzDr1hm_sHExOrsk-24" value="" style="edgeStyle=orthogonalEdgeStyle;html=1;verticalAlign=bottom;endArrow=open;endSize=8;strokeColor=#000000;rounded=0;" edge="1" parent="1" source="kv11LzDr1hm_sHExOrsk-23">
          <mxGeometry relative="1" as="geometry">
            <mxPoint x="135" y="160" as="targetPoint" />
          </mxGeometry>
        </mxCell>
        <mxCell id="kv11LzDr1hm_sHExOrsk-25" value="登录" style="rounded=1;whiteSpace=wrap;html=1;" vertex="1" parent="1">
          <mxGeometry x="72.5" y="160" width="125" height="50" as="geometry" />
        </mxCell>
        <mxCell id="kv11LzDr1hm_sHExOrsk-26" value="" style="endArrow=open;html=1;rounded=0;endFill=0;exitX=0.5;exitY=1;exitDx=0;exitDy=0;" edge="1" parent="1" source="kv11LzDr1hm_sHExOrsk-25">
          <mxGeometry width="50" height="50" relative="1" as="geometry">
            <mxPoint x="270" y="330" as="sourcePoint" />
            <mxPoint x="136" y="270" as="targetPoint" />
          </mxGeometry>
        </mxCell>
        <mxCell id="kv11LzDr1hm_sHExOrsk-27" value="无权限查看预测结果" style="rounded=1;whiteSpace=wrap;html=1;" vertex="1" parent="1">
          <mxGeometry x="310" y="275" width="125" height="50" as="geometry" />
        </mxCell>
        <mxCell id="kv11LzDr1hm_sHExOrsk-28" value="" style="endArrow=open;html=1;rounded=0;endFill=0;exitX=1;exitY=0.5;exitDx=0;exitDy=0;entryX=1;entryY=0.5;entryDx=0;entryDy=0;" edge="1" parent="1" source="kv11LzDr1hm_sHExOrsk-27" target="kv11LzDr1hm_sHExOrsk-4">
          <mxGeometry width="50" height="50" relative="1" as="geometry">
            <mxPoint x="137" y="420" as="sourcePoint" />
            <mxPoint x="150" y="560" as="targetPoint" />
            <Array as="points">
              <mxPoint x="480" y="300" />
              <mxPoint x="480" y="845" />
            </Array>
          </mxGeometry>
        </mxCell>
        <mxCell id="kv11LzDr1hm_sHExOrsk-29" value="患者是否带管" style="rhombus;whiteSpace=wrap;html=1;" vertex="1" parent="1">
          <mxGeometry x="73.75" y="490" width="127.5" height="60" as="geometry" />
        </mxCell>
        <mxCell id="kv11LzDr1hm_sHExOrsk-31" value="" style="endArrow=open;html=1;rounded=0;endFill=0;exitX=0;exitY=0.5;exitDx=0;exitDy=0;entryX=0;entryY=0.5;entryDx=0;entryDy=0;" edge="1" parent="1" source="kv11LzDr1hm_sHExOrsk-14" target="kv11LzDr1hm_sHExOrsk-4">
          <mxGeometry width="50" height="50" relative="1" as="geometry">
            <mxPoint x="250" y="450" as="sourcePoint" />
            <mxPoint x="250" y="490" as="targetPoint" />
            <Array as="points">
              <mxPoint x="20" y="420" />
              <mxPoint x="20" y="845" />
            </Array>
          </mxGeometry>
        </mxCell>
        <mxCell id="kv11LzDr1hm_sHExOrsk-32" value="否" style="edgeLabel;html=1;align=center;verticalAlign=middle;resizable=0;points=[];" vertex="1" connectable="0" parent="kv11LzDr1hm_sHExOrsk-31">
          <mxGeometry x="-0.2933" y="2" relative="1" as="geometry">
            <mxPoint x="38" y="-161" as="offset" />
          </mxGeometry>
        </mxCell>
        <mxCell id="kv11LzDr1hm_sHExOrsk-33" value="" style="endArrow=open;html=1;rounded=0;endFill=0;exitX=0.5;exitY=1;exitDx=0;exitDy=0;entryX=0.5;entryY=0;entryDx=0;entryDy=0;" edge="1" parent="1" target="kv11LzDr1hm_sHExOrsk-35" source="kv11LzDr1hm_sHExOrsk-29">
          <mxGeometry width="50" height="50" relative="1" as="geometry">
            <mxPoint x="137.5" y="560" as="sourcePoint" />
            <mxPoint x="126.25" y="620" as="targetPoint" />
          </mxGeometry>
        </mxCell>
        <mxCell id="kv11LzDr1hm_sHExOrsk-34" value="是" style="edgeLabel;html=1;align=center;verticalAlign=middle;resizable=0;points=[];" vertex="1" connectable="0" parent="kv11LzDr1hm_sHExOrsk-33">
          <mxGeometry x="-0.2933" y="2" relative="1" as="geometry">
            <mxPoint x="6" as="offset" />
          </mxGeometry>
        </mxCell>
        <mxCell id="kv11LzDr1hm_sHExOrsk-35" value="特征变量已填写" style="rhombus;whiteSpace=wrap;html=1;" vertex="1" parent="1">
          <mxGeometry x="73.75" y="600" width="127.5" height="60" as="geometry" />
        </mxCell>
        <mxCell id="kv11LzDr1hm_sHExOrsk-36" value="" style="endArrow=open;html=1;rounded=0;endFill=0;exitX=0.5;exitY=1;exitDx=0;exitDy=0;entryX=0.5;entryY=0;entryDx=0;entryDy=0;" edge="1" parent="1" target="kv11LzDr1hm_sHExOrsk-19">
          <mxGeometry width="50" height="50" relative="1" as="geometry">
            <mxPoint x="137" y="660" as="sourcePoint" />
            <mxPoint x="137" y="710" as="targetPoint" />
          </mxGeometry>
        </mxCell>
        <mxCell id="kv11LzDr1hm_sHExOrsk-37" value="是" style="edgeLabel;html=1;align=center;verticalAlign=middle;resizable=0;points=[];" vertex="1" connectable="0" parent="kv11LzDr1hm_sHExOrsk-36">
          <mxGeometry x="-0.2933" y="2" relative="1" as="geometry">
            <mxPoint x="6" as="offset" />
          </mxGeometry>
        </mxCell>
        <mxCell id="kv11LzDr1hm_sHExOrsk-38" value="" style="endArrow=open;html=1;rounded=0;endFill=0;entryX=0.5;entryY=0;entryDx=0;entryDy=0;exitX=0.5;exitY=1;exitDx=0;exitDy=0;" edge="1" parent="1" source="kv11LzDr1hm_sHExOrsk-19" target="kv11LzDr1hm_sHExOrsk-4">
          <mxGeometry width="50" height="50" relative="1" as="geometry">
            <mxPoint x="138.25" y="760" as="sourcePoint" />
            <mxPoint x="139.25" y="820" as="targetPoint" />
          </mxGeometry>
        </mxCell>
        <mxCell id="kv11LzDr1hm_sHExOrsk-39" value="" style="endArrow=open;html=1;rounded=0;endFill=0;exitX=1;exitY=0.5;exitDx=0;exitDy=0;entryX=0;entryY=0.5;entryDx=0;entryDy=0;" edge="1" parent="1" source="kv11LzDr1hm_sHExOrsk-35" target="kv11LzDr1hm_sHExOrsk-41">
          <mxGeometry width="50" height="50" relative="1" as="geometry">
            <mxPoint x="210" y="600" as="sourcePoint" />
            <mxPoint x="288.75" y="605" as="targetPoint" />
          </mxGeometry>
        </mxCell>
        <mxCell id="kv11LzDr1hm_sHExOrsk-40" value="否" style="edgeLabel;html=1;align=center;verticalAlign=middle;resizable=0;points=[];" vertex="1" connectable="0" parent="kv11LzDr1hm_sHExOrsk-39">
          <mxGeometry x="-0.2933" y="2" relative="1" as="geometry">
            <mxPoint x="12" y="-10" as="offset" />
          </mxGeometry>
        </mxCell>
        <mxCell id="kv11LzDr1hm_sHExOrsk-41" value="提示变量缺失" style="rounded=1;whiteSpace=wrap;html=1;" vertex="1" parent="1">
          <mxGeometry x="280" y="605" width="125" height="50" as="geometry" />
        </mxCell>
        <mxCell id="kv11LzDr1hm_sHExOrsk-42" value="" style="endArrow=open;html=1;rounded=0;endFill=0;exitX=0.5;exitY=1;exitDx=0;exitDy=0;entryX=1;entryY=0;entryDx=0;entryDy=0;" edge="1" parent="1" source="kv11LzDr1hm_sHExOrsk-41" target="kv11LzDr1hm_sHExOrsk-4">
          <mxGeometry width="50" height="50" relative="1" as="geometry">
            <mxPoint x="147" y="779" as="sourcePoint" />
            <mxPoint x="148" y="840" as="targetPoint" />
          </mxGeometry>
        </mxCell>
        <mxCell id="kv11LzDr1hm_sHExOrsk-43" value="" style="endArrow=open;html=1;rounded=0;endFill=0;exitX=1;exitY=0.5;exitDx=0;exitDy=0;entryX=0;entryY=0.5;entryDx=0;entryDy=0;" edge="1" parent="1" target="kv11LzDr1hm_sHExOrsk-45">
          <mxGeometry width="50" height="50" relative="1" as="geometry">
            <mxPoint x="200" y="520" as="sourcePoint" />
            <mxPoint x="287.75" y="495" as="targetPoint" />
          </mxGeometry>
        </mxCell>
        <mxCell id="kv11LzDr1hm_sHExOrsk-44" value="否" style="edgeLabel;html=1;align=center;verticalAlign=middle;resizable=0;points=[];" vertex="1" connectable="0" parent="kv11LzDr1hm_sHExOrsk-43">
          <mxGeometry x="-0.2933" y="2" relative="1" as="geometry">
            <mxPoint x="12" y="-10" as="offset" />
          </mxGeometry>
        </mxCell>
        <mxCell id="kv11LzDr1hm_sHExOrsk-45" value="提示添加置管事件" style="rounded=1;whiteSpace=wrap;html=1;" vertex="1" parent="1">
          <mxGeometry x="279" y="495" width="125" height="50" as="geometry" />
        </mxCell>
        <mxCell id="kv11LzDr1hm_sHExOrsk-46" value="" style="endArrow=open;html=1;rounded=0;endFill=0;exitX=1;exitY=0.5;exitDx=0;exitDy=0;entryX=1;entryY=0;entryDx=0;entryDy=0;" edge="1" parent="1" source="kv11LzDr1hm_sHExOrsk-45" target="kv11LzDr1hm_sHExOrsk-4">
          <mxGeometry width="50" height="50" relative="1" as="geometry">
            <mxPoint x="445" y="310" as="sourcePoint" />
            <mxPoint x="163" y="855" as="targetPoint" />
            <Array as="points">
              <mxPoint x="440" y="520" />
              <mxPoint x="440" y="720" />
            </Array>
          </mxGeometry>
        </mxCell>
      </root>
    </mxGraphModel>
  </diagram>
</mxfile>
